<?xml version="1.0" encoding="UTF-8"?>
<svg version="1.1" xmlns="http://www.w3.org/2000/svg" width="464" height="464">
<path d="M0 0 C3.55494263 3.13001765 7.00160111 6.36624469 10.42285156 9.64111328 C10.92026855 10.11129883 11.41768555 10.58148438 11.93017578 11.06591797 C19.93419739 18.66112511 26.84188804 26.79405174 33.42285156 35.64111328 C33.84808105 36.20556152 34.27331055 36.77000977 34.71142578 37.3515625 C52.91600846 61.6033422 66.16968631 89.27406255 73.67285156 118.64111328 C73.90713867 119.5528833 74.14142578 120.46465332 74.3828125 121.40405273 C75.12885668 124.47252069 75.79159804 127.54688534 76.42285156 130.64111328 C76.55595734 131.28738678 76.68906311 131.93366028 76.82620239 132.59951782 C79.46990128 145.85342839 79.91991771 158.91032695 79.86889648 172.40014648 C79.86040478 175.80726032 79.88924127 179.21267988 79.92089844 182.61962891 C79.98329352 201.91424366 77.68207824 220.70995206 72.23535156 239.26611328 C71.93910889 240.2920459 71.64286621 241.31797852 71.33764648 242.375 C63.84788976 267.49032874 52.17147836 291.6636934 36.42285156 312.64111328 C35.97055176 313.24745605 35.51825195 313.85379883 35.05224609 314.47851562 C28.65823044 322.98798126 21.78011694 330.95498884 14.42285156 338.64111328 C13.95266602 339.13853027 13.48248047 339.63594727 12.99804688 340.1484375 C5.40283973 348.15245911 -2.7300869 355.06014976 -11.57714844 361.64111328 C-12.14159668 362.06634277 -12.70604492 362.49157227 -13.28759766 362.9296875 C-37.53937735 381.13427018 -65.21009771 394.38794803 -94.57714844 401.89111328 C-95.48891846 402.12540039 -96.40068848 402.3596875 -97.34008789 402.60107422 C-100.40855585 403.3471184 -103.4829205 404.00985976 -106.57714844 404.64111328 C-107.22342194 404.77421906 -107.86969543 404.90732483 -108.53555298 405.04446411 C-121.78946354 407.688163 -134.84636211 408.13817943 -148.33618164 408.0871582 C-151.74329547 408.0786665 -155.14871504 408.10750299 -158.55566406 408.13916016 C-177.85027882 408.20155524 -196.64598722 405.90033996 -215.20214844 400.45361328 C-216.22808105 400.15737061 -217.25401367 399.86112793 -218.31103516 399.5559082 C-243.42636389 392.06615148 -267.59972855 380.38974008 -288.57714844 364.64111328 C-289.18349121 364.18881348 -289.78983398 363.73651367 -290.41455078 363.27050781 C-298.92401642 356.87649216 -306.891024 349.99837866 -314.57714844 342.64111328 C-315.07456543 342.17092773 -315.57198242 341.70074219 -316.08447266 341.21630859 C-324.08849426 333.62110145 -330.99618491 325.48817482 -337.57714844 316.64111328 C-338.21499268 315.79444092 -338.21499268 315.79444092 -338.86572266 314.93066406 C-375.30143843 266.39173475 -390.82797191 204.84039138 -383.05981445 144.73022461 C-375.81337889 94.91450071 -353.28610861 49.90151346 -318.57714844 13.64111328 C-318.10696289 13.14369629 -317.63677734 12.6462793 -317.15234375 12.13378906 C-309.55713661 4.12976746 -301.42420998 -2.77792319 -292.57714844 -9.35888672 C-292.0127002 -9.78411621 -291.44825195 -10.2093457 -290.86669922 -10.64746094 C-217.04838811 -66.05912824 -119.16661366 -69.85056543 0 0 Z " fill="#FEFEFE" transform="translate(384.5771484375,56.35888671875)"/>
<path d="M0 0 C10.12691269 8.49170494 20.08925379 18.44086537 23.27392578 31.65332031 C24.50626953 31.7396875 25.73861328 31.82605469 27.00830078 31.91503906 C44.01065537 33.28314351 59.74138868 38.25064206 71.27392578 51.65332031 C71.27392578 52.31332031 71.27392578 52.97332031 71.27392578 53.65332031 C71.93392578 53.65332031 72.59392578 53.65332031 73.27392578 53.65332031 C83.89229342 66.93935667 85.77892791 81.20038674 84.27392578 97.65332031 C82.7891746 106.4036882 79.31301094 114.06387517 73.27392578 120.65332031 C72.61392578 120.65332031 71.95392578 120.65332031 71.27392578 120.65332031 C71.27392578 121.31332031 71.27392578 121.97332031 71.27392578 122.65332031 C70.61392578 122.65332031 69.95392578 122.65332031 69.27392578 122.65332031 C71.31256795 126.30615549 73.55826984 129.15253612 76.46142578 132.15332031 C100.33331355 158.38914502 101.63894507 193.36623455 101.53466797 226.91333008 C101.52341162 230.56440724 101.52996437 234.21518836 101.54154205 237.86625481 C101.58162369 252.7664467 101.33640699 267.61281715 100.38330078 282.48535156 C100.30581604 283.74184006 100.2283313 284.99832855 100.14849854 286.29289246 C100.06581726 287.45315445 99.98313599 288.61341644 99.89794922 289.80883789 C99.82622498 290.8210994 99.75450073 291.8333609 99.68060303 292.876297 C98.92514746 298.03497687 97.25535411 301.2751387 93.27392578 304.65332031 C90.28459946 305.64976242 88.27085634 305.79126696 85.14746094 305.81445312 C84.10272614 305.82406067 83.05799133 305.83366821 81.9815979 305.84356689 C80.85345673 305.84781677 79.72531555 305.85206665 78.56298828 305.85644531 C77.40270111 305.86214539 76.24241394 305.86784546 75.04696655 305.87371826 C72.59072787 305.88316954 70.1344765 305.88970275 67.67822266 305.89355469 C63.92083638 305.9032637 60.16399623 305.93428812 56.40673828 305.96582031 C54.02132487 305.97235004 51.63590754 305.97760063 49.25048828 305.98144531 C47.56434921 305.99996552 47.56434921 305.99996552 45.84414673 306.01885986 C44.7931076 306.01585876 43.74206848 306.01285767 42.65917969 306.00976562 C41.73779205 306.01341125 40.81640442 306.01705688 39.86709595 306.02081299 C36.69862457 305.57179115 34.85023528 304.52803065 32.27392578 302.65332031 C30.16793444 299.4943333 29.92164376 298.17248408 29.56298828 294.49707031 C29.45212891 293.47355469 29.34126953 292.45003906 29.22705078 291.39550781 C29.01151007 289.26576032 28.80043241 287.13555551 28.59423828 285.00488281 C27.46128815 274.67958732 25.00299848 264.11830169 17.27392578 256.65332031 C8.08337675 250.65417635 -3.13120246 250.18590384 -13.71826172 252.23144531 C-23.39365423 255.631743 -30.24409658 262.76641663 -34.72607422 271.77832031 C-38.55967111 279.90628294 -40.04403516 287.46057092 -40.87060547 296.34863281 C-41.92442803 300.41956379 -43.500721 302.02096926 -46.72607422 304.65332031 C-49.8371967 305.69036114 -52.04720153 305.79846226 -55.31152344 305.83032227 C-56.456362 305.8431575 -57.60120056 305.85599274 -58.7807312 305.86921692 C-60.01824127 305.87660385 -61.25575134 305.88399078 -62.53076172 305.89160156 C-63.80202911 305.89967331 -65.07329651 305.90774506 -66.38308716 305.9160614 C-69.07476445 305.92990092 -71.76631932 305.94091814 -74.45800781 305.94848633 C-77.90032027 305.95955388 -81.34198686 305.99396407 -84.78407097 306.03365803 C-88.07457036 306.06613296 -91.3651265 306.07060317 -94.65576172 306.07910156 C-96.50595413 306.10536369 -96.50595413 306.10536369 -98.39352417 306.13215637 C-99.54466705 306.1292308 -100.69580994 306.12630524 -101.88183594 306.12329102 C-103.39715408 306.13209038 -103.39715408 306.13209038 -104.94308472 306.1410675 C-109.14891294 305.40395337 -111.55549464 303.2752832 -114.02261353 299.85682678 C-115.0415468 296.6651402 -114.97822371 293.74478035 -114.98144531 290.3972168 C-114.98506577 289.67303055 -114.98868622 288.9488443 -114.99241638 288.20271301 C-114.9993 286.63239741 -115.00181776 285.06205794 -115.00046921 283.49172783 C-114.99950118 280.997257 -115.0124817 278.50321387 -115.02944946 276.00880432 C-115.07561707 268.91728087 -115.10029209 261.82579944 -115.10693359 254.73413086 C-115.11198037 250.39157223 -115.1363956 246.04945643 -115.17226028 241.70704842 C-115.18199154 240.06105281 -115.18442709 238.41499574 -115.17908859 236.76898003 C-115.15079617 227.61009715 -115.22424074 218.93060023 -119.72607422 210.65332031 C-123.9286657 206.45072883 -126.94338771 205.441424 -132.78857422 205.21582031 C-140.76309571 205.29503741 -144.97420761 207.86780468 -150.46826172 213.41113281 C-159.52102262 224.17536094 -159.84508566 237.69915416 -158.99658203 251.10693359 C-157.99331725 260.55102358 -153.66849769 268.25227849 -146.72607422 274.65332031 C-145.36482422 275.73613281 -145.36482422 275.73613281 -143.97607422 276.84082031 C-140.00018707 280.04361829 -138.85317432 282.50941936 -138.28857422 287.59082031 C-138.47468543 291.88756185 -139.89316951 294.37311486 -142.72607422 297.65332031 C-150.54263748 303.67858783 -159.2205109 303.51045587 -168.72607422 302.65332031 C-182.76122921 299.63593441 -195.32896123 289.19133306 -203.10107422 277.40722656 C-225.45475273 239.52418966 -221.32098564 184.49441169 -211.12548828 143.41552734 C-204.65509754 118.66490356 -193.08617804 94.78473429 -170.25585938 81.20849609 C-162.75916167 76.91473417 -162.75916167 76.91473417 -158.51513672 75.84082031 C-154.57110395 74.16156827 -154.05025371 72.0441346 -152.41357422 68.15332031 C-146.36558094 54.96859368 -136.13220061 46.28154083 -122.96826172 40.42675781 C-119.41070199 39.17045784 -116.51377056 38.65332031 -112.72607422 38.65332031 C-112.59265625 37.41195312 -112.59265625 37.41195312 -112.45654297 36.14550781 C-111.57859349 31.94825203 -109.98755513 28.57219292 -108.03857422 24.77832031 C-107.67699219 24.06869141 -107.31541016 23.3590625 -106.94287109 22.62792969 C-104.31141503 17.56528767 -101.54079001 12.92424893 -97.72607422 8.65332031 C-96.88882813 7.67878906 -96.88882813 7.67878906 -96.03466797 6.68457031 C-72.20659848 -19.18306254 -27.47189573 -21.43351864 0 0 Z " fill="#FDFDFD" transform="translate(289.72607421875,84.3466796875)"/>
<path d="M0 0 C10.12691269 8.49170494 20.08925379 18.44086537 23.27392578 31.65332031 C24.50626953 31.7396875 25.73861328 31.82605469 27.00830078 31.91503906 C44.01065537 33.28314351 59.74138868 38.25064206 71.27392578 51.65332031 C71.27392578 52.31332031 71.27392578 52.97332031 71.27392578 53.65332031 C71.93392578 53.65332031 72.59392578 53.65332031 73.27392578 53.65332031 C83.89229342 66.93935667 85.77892791 81.20038674 84.27392578 97.65332031 C82.7891746 106.4036882 79.31301094 114.06387517 73.27392578 120.65332031 C72.61392578 120.65332031 71.95392578 120.65332031 71.27392578 120.65332031 C71.27392578 121.31332031 71.27392578 121.97332031 71.27392578 122.65332031 C70.61392578 122.65332031 69.95392578 122.65332031 69.27392578 122.65332031 C71.31256795 126.30615549 73.55826984 129.15253612 76.46142578 132.15332031 C100.33331355 158.38914502 101.63894507 193.36623455 101.53466797 226.91333008 C101.52341162 230.56440724 101.52996437 234.21518836 101.54154205 237.86625481 C101.58162369 252.7664467 101.33640699 267.61281715 100.38330078 282.48535156 C100.30581604 283.74184006 100.2283313 284.99832855 100.14849854 286.29289246 C100.06581726 287.45315445 99.98313599 288.61341644 99.89794922 289.80883789 C99.82622498 290.8210994 99.75450073 291.8333609 99.68060303 292.876297 C98.92514746 298.03497687 97.25535411 301.2751387 93.27392578 304.65332031 C90.28459946 305.64976242 88.27085634 305.79126696 85.14746094 305.81445312 C84.10272614 305.82406067 83.05799133 305.83366821 81.9815979 305.84356689 C80.85345673 305.84781677 79.72531555 305.85206665 78.56298828 305.85644531 C77.40270111 305.86214539 76.24241394 305.86784546 75.04696655 305.87371826 C72.59072787 305.88316954 70.1344765 305.88970275 67.67822266 305.89355469 C63.92083638 305.9032637 60.16399623 305.93428812 56.40673828 305.96582031 C54.02132487 305.97235004 51.63590754 305.97760063 49.25048828 305.98144531 C47.56434921 305.99996552 47.56434921 305.99996552 45.84414673 306.01885986 C44.7931076 306.01585876 43.74206848 306.01285767 42.65917969 306.00976562 C41.73779205 306.01341125 40.81640442 306.01705688 39.86709595 306.02081299 C36.69862457 305.57179115 34.85023528 304.52803065 32.27392578 302.65332031 C30.16793444 299.4943333 29.92164376 298.17248408 29.56298828 294.49707031 C29.45212891 293.47355469 29.34126953 292.45003906 29.22705078 291.39550781 C29.01151007 289.26576032 28.80043241 287.13555551 28.59423828 285.00488281 C27.46128815 274.67958732 25.00299848 264.11830169 17.27392578 256.65332031 C8.08337675 250.65417635 -3.13120246 250.18590384 -13.71826172 252.23144531 C-23.39365423 255.631743 -30.24409658 262.76641663 -34.72607422 271.77832031 C-38.55967111 279.90628294 -40.04403516 287.46057092 -40.87060547 296.34863281 C-41.92442803 300.41956379 -43.500721 302.02096926 -46.72607422 304.65332031 C-49.8371967 305.69036114 -52.04720153 305.79846226 -55.31152344 305.83032227 C-56.456362 305.8431575 -57.60120056 305.85599274 -58.7807312 305.86921692 C-60.01824127 305.87660385 -61.25575134 305.88399078 -62.53076172 305.89160156 C-63.80202911 305.89967331 -65.07329651 305.90774506 -66.38308716 305.9160614 C-69.07476445 305.92990092 -71.76631932 305.94091814 -74.45800781 305.94848633 C-77.90032027 305.95955388 -81.34198686 305.99396407 -84.78407097 306.03365803 C-88.07457036 306.06613296 -91.3651265 306.07060317 -94.65576172 306.07910156 C-96.50595413 306.10536369 -96.50595413 306.10536369 -98.39352417 306.13215637 C-99.54466705 306.1292308 -100.69580994 306.12630524 -101.88183594 306.12329102 C-103.39715408 306.13209038 -103.39715408 306.13209038 -104.94308472 306.1410675 C-109.14891294 305.40395337 -111.55549464 303.2752832 -114.02261353 299.85682678 C-115.0415468 296.6651402 -114.97822371 293.74478035 -114.98144531 290.3972168 C-114.98506577 289.67303055 -114.98868622 288.9488443 -114.99241638 288.20271301 C-114.9993 286.63239741 -115.00181776 285.06205794 -115.00046921 283.49172783 C-114.99950118 280.997257 -115.0124817 278.50321387 -115.02944946 276.00880432 C-115.07561707 268.91728087 -115.10029209 261.82579944 -115.10693359 254.73413086 C-115.11198037 250.39157223 -115.1363956 246.04945643 -115.17226028 241.70704842 C-115.18199154 240.06105281 -115.18442709 238.41499574 -115.17908859 236.76898003 C-115.15079617 227.61009715 -115.22424074 218.93060023 -119.72607422 210.65332031 C-123.9286657 206.45072883 -126.94338771 205.441424 -132.78857422 205.21582031 C-140.76309571 205.29503741 -144.97420761 207.86780468 -150.46826172 213.41113281 C-159.52102262 224.17536094 -159.84508566 237.69915416 -158.99658203 251.10693359 C-157.99331725 260.55102358 -153.66849769 268.25227849 -146.72607422 274.65332031 C-145.36482422 275.73613281 -145.36482422 275.73613281 -143.97607422 276.84082031 C-140.00018707 280.04361829 -138.85317432 282.50941936 -138.28857422 287.59082031 C-138.47468543 291.88756185 -139.89316951 294.37311486 -142.72607422 297.65332031 C-150.54263748 303.67858783 -159.2205109 303.51045587 -168.72607422 302.65332031 C-182.76122921 299.63593441 -195.32896123 289.19133306 -203.10107422 277.40722656 C-225.45475273 239.52418966 -221.32098564 184.49441169 -211.12548828 143.41552734 C-204.65509754 118.66490356 -193.08617804 94.78473429 -170.25585938 81.20849609 C-162.75916167 76.91473417 -162.75916167 76.91473417 -158.51513672 75.84082031 C-154.57110395 74.16156827 -154.05025371 72.0441346 -152.41357422 68.15332031 C-146.36558094 54.96859368 -136.13220061 46.28154083 -122.96826172 40.42675781 C-119.41070199 39.17045784 -116.51377056 38.65332031 -112.72607422 38.65332031 C-112.59265625 37.41195312 -112.59265625 37.41195312 -112.45654297 36.14550781 C-111.57859349 31.94825203 -109.98755513 28.57219292 -108.03857422 24.77832031 C-107.67699219 24.06869141 -107.31541016 23.3590625 -106.94287109 22.62792969 C-104.31141503 17.56528767 -101.54079001 12.92424893 -97.72607422 8.65332031 C-96.88882813 7.67878906 -96.88882813 7.67878906 -96.03466797 6.68457031 C-72.20659848 -19.18306254 -27.47189573 -21.43351864 0 0 Z M-173.72607422 105.65332031 C-174.28037109 106.20761719 -174.83466797 106.76191406 -175.40576172 107.33300781 C-186.9669599 119.8940934 -193.02435407 136.04531795 -196.08544922 152.56738281 C-196.72607422 155.65332031 -196.72607422 155.65332031 -197.70263672 158.47753906 C-202.61023399 173.70607563 -202.04487581 190.58278747 -202.10107422 206.40332031 C-202.10874817 207.31044769 -202.11642212 208.21757507 -202.12432861 209.15219116 C-202.24813034 227.50238169 -201.09329232 246.91888411 -192.72607422 263.65332031 C-192.06607422 263.65332031 -191.40607422 263.65332031 -190.72607422 263.65332031 C-190.51982422 264.31332031 -190.31357422 264.97332031 -190.10107422 265.65332031 C-185.99992035 274.60129238 -178.73755793 281.80165846 -169.60107422 285.59082031 C-165.88403235 286.81490639 -162.61471168 286.89636015 -158.72607422 286.65332031 C-160.01620087 283.82849323 -161.40320556 281.77073911 -163.53857422 279.52832031 C-174.50236454 266.87985001 -175.80704851 250.10354029 -174.9375 234.05273438 C-174.02295438 223.67380327 -170.30325901 214.38682397 -164.72607422 205.65332031 C-163.85982422 204.29207031 -163.85982422 204.29207031 -162.97607422 202.90332031 C-154.46329549 194.39054158 -144.74324275 189.31486829 -132.66357422 189.21582031 C-122.598044 189.40349262 -116.09071688 191.31540352 -108.73779297 198.36035156 C-98.90724666 209.56526551 -99.42431289 224.60458993 -99.31201172 238.70019531 C-99.2932538 240.20763147 -99.27367715 241.71505765 -99.25332642 243.22247314 C-99.20248658 247.14809213 -99.16260671 251.07374498 -99.12518311 254.99951172 C-99.07771678 259.73220452 -99.01632984 264.46473569 -98.95733643 269.19729614 C-98.86971287 276.3492372 -98.79952887 283.50115661 -98.72607422 290.65332031 C-84.86607422 290.65332031 -71.00607422 290.65332031 -56.72607422 290.65332031 C-56.39607422 287.35332031 -56.06607422 284.05332031 -55.72607422 280.65332031 C-54.83191719 277.83672567 -53.91247992 275.33134812 -52.72607422 272.65332031 C-52.36384766 271.78707031 -52.00162109 270.92082031 -51.62841797 270.02832031 C-44.84721092 254.32906284 -35.40300017 243.73078702 -19.35107422 237.27832031 C-6.8734316 233.44647652 8.45809655 234.13709064 20.27392578 239.65332031 C32.34951197 246.23690261 38.32424989 255.70457896 42.27392578 268.65332031 C44.07209428 275.92460277 44.59420114 283.17634923 45.27392578 290.65332031 C57.81392578 290.65332031 70.35392578 290.65332031 83.27392578 290.65332031 C85.12081026 273.02329957 85.61947139 255.61042848 85.58959961 237.90917969 C85.58494334 234.89796106 85.59200112 231.88714394 85.61010742 228.87597656 C85.83354021 191.35239286 81.76740474 160.82050413 54.83642578 132.90332031 C49.97632133 128.16404718 45.04992184 124.20961541 39.27392578 120.65332031 C38.70577148 120.30027832 38.13761719 119.94723633 37.55224609 119.58349609 C27.55923527 113.44582968 17.46596315 109.10049971 6.27392578 105.65332031 C5.5992627 105.44304199 4.92459961 105.23276367 4.22949219 105.01611328 C-3.61063213 102.50539965 -3.61063213 102.50539965 -11.72607422 101.65332031 C-11.52111328 102.36617187 -11.31615234 103.07902344 -11.10498047 103.81347656 C-5.40754029 124.06801269 -6.81241888 143.85377521 -16.72607422 162.65332031 C-27.45654117 180.40567992 -41.94011605 193.16235438 -60.53857422 202.21582031 C-61.23136475 202.56249756 -61.92415527 202.9091748 -62.63793945 203.26635742 C-67.55424955 205.55813144 -71.30348589 206.12816318 -76.72607422 205.65332031 C-79.40668145 203.47532693 -79.66107639 202.04330726 -80.22607422 198.65332031 C-79.72607422 195.65332031 -79.72607422 195.65332031 -77.67919922 193.70800781 C-74.25154694 191.3231598 -70.74035092 189.56142202 -66.97607422 187.77832031 C-47.4304483 178.2175277 -32.51735112 164.45443427 -24.98388672 143.59863281 C-21.72194406 132.11480728 -22.25681727 117.25101999 -27.72607422 106.65332031 C-33.52216886 97.47488928 -42.52348774 93.95418285 -52.65771484 91.27514648 C-57.96433277 90.19972033 -63.20268101 90.16701455 -68.60107422 90.21582031 C-70.31580933 90.22391724 -70.31580933 90.22391724 -72.06518555 90.23217773 C-82.02880584 90.41199056 -89.67399838 92.34950793 -98.72607422 96.46582031 C-102.16951511 97.828849 -103.2338667 97.61614951 -106.72607422 96.65332031 C-108.39028118 95.90104465 -110.0356054 95.10610107 -111.66357422 94.27832031 C-134.18402824 83.80721972 -156.42926854 88.35651463 -173.72607422 105.65332031 Z " fill="#090909" transform="translate(289.72607421875,84.3466796875)"/>
<path d="M0 0 C10.42173163 8.40229574 17.44746113 21.1598645 19.5078125 34.2578125 C20.23782471 34.2671582 20.96783691 34.27650391 21.7199707 34.28613281 C25.08738893 34.34043313 28.4535055 34.42396132 31.8203125 34.5078125 C33.54217773 34.52908203 33.54217773 34.52908203 35.29882812 34.55078125 C47.64097371 34.9004171 57.34233851 38.19208989 66.19140625 46.91796875 C74.26942693 55.76148765 77.00566776 65.66811101 76.8203125 77.49609375 C76.0906188 86.27978167 72.06697731 92.62387582 66.5078125 99.2578125 C62.96705931 97.97645601 60.24725882 96.46965745 57.2578125 94.1953125 C36.07074265 79.15123923 12.7291458 73.60957952 -12.6796875 70.3203125 C-17.90832178 69.55879489 -22.08355915 67.82380597 -26.80078125 65.49609375 C-44.74720717 57.239175 -68.10776753 58.13711861 -86.4921875 64.2578125 C-87.78962891 64.84949219 -87.78962891 64.84949219 -89.11328125 65.453125 C-93.67924178 66.99760426 -97.72433023 64.89600051 -102.0546875 63.2578125 C-107.91574934 61.04670457 -112.97833709 60.05646077 -119.2421875 59.6953125 C-120.28826172 59.63053711 -120.28826172 59.63053711 -121.35546875 59.56445312 C-123.06750672 59.45891654 -124.77982311 59.3579134 -126.4921875 59.2578125 C-121.00456984 49.73182932 -113.26747019 43.7727211 -102.58056641 40.70996094 C-98.58302385 39.7157637 -94.55284 38.94259709 -90.4921875 38.2578125 C-90.33943359 37.02611328 -90.33943359 37.02611328 -90.18359375 35.76953125 C-87.26718812 20.95682697 -79.23715441 7.00720476 -67.1171875 -2.02734375 C-45.75316888 -15.98389758 -20.60884862 -14.40681267 0 0 Z " fill="#FDFDFD" transform="translate(280.4921875,98.7421875)"/>
<path d="M0 0 C2.44782948 1.90386737 3.42307625 2.77307451 4.25 5.75 C4.10998886 9.60030645 3.53363019 12.20637547 1.75 15.625 C-1.34756305 18.25792859 -3.54954074 18.78325269 -7.55859375 19.0078125 C-9.75 18.75 -9.75 18.75 -12.75 16.75 C-15.13153784 13.17769324 -15.75 11.03946728 -15.75 6.75 C-14.58718318 3.50635307 -13.69829336 1.46939496 -10.9375 -0.625 C-6.86877684 -1.78749233 -3.8708718 -1.75948718 0 0 Z " fill="#0D0D0D" transform="translate(144.75,226.25)"/>
<path d="M0 0 C0.66 0 1.32 0 2 0 C1.29937203 3.15282585 0.1977381 6.00565474 -1 9 C-1.165 9.721875 -1.33 10.44375 -1.5 11.1875 C-2 13 -2 13 -4 15 C-4.16682272 10.07872966 -4.24828052 6.49656104 -2 2 C-1.34 2 -0.68 2 0 2 C0 1.34 0 0.68 0 0 Z " fill="#202020" transform="translate(237,358)"/>
<path d="M0 0 C0.33 0 0.66 0 1 0 C1.24927162 2.58281438 1.47499275 5.16412228 1.6875 7.75 C1.76033203 8.47960937 1.83316406 9.20921875 1.90820312 9.9609375 C2.28849464 14.88235706 2.11981749 15.84024334 -1 20 C-0.67 13.4 -0.34 6.8 0 0 Z " fill="#414141" transform="translate(357,166)"/>
<path d="M0 0 C0.33 0.66 0.66 1.32 1 2 C3.02463255 2.65213292 3.02463255 2.65213292 5 3 C5.33 4.65 5.66 6.3 6 8 C5.01 8.33 4.02 8.66 3 9 C0.9375 6.1875 0.9375 6.1875 -1 3 C-0.67 2.01 -0.34 1.02 0 0 Z " fill="#161616" transform="translate(289,105)"/>
<path d="M0 0 C2 3 2 3 1.828125 5.0859375 C1.63734375 5.84132812 1.4465625 6.59671875 1.25 7.375 C1.05148438 8.16519531 0.85296875 8.95539063 0.6484375 9.76953125 C-0.0752394 12.2588054 -0.93280741 14.6369307 -2 17 C-3.44715727 13.12813552 -2.5441918 10.1767672 -1.5625 6.25 C-1.27503906 5.07953125 -0.98757812 3.9090625 -0.69140625 2.703125 C-0.46324219 1.81109375 -0.23507813 0.9190625 0 0 Z " fill="#242424" transform="translate(79,226)"/>
<path d="M0 0 C0.99 0.33 1.98 0.66 3 1 C5.56634861 1.22718496 8.11678107 1.41608184 10.6875 1.5625 C11.7403418 1.62727539 11.7403418 1.62727539 12.81445312 1.69335938 C14.54275206 1.7991736 16.2713511 1.90006581 18 2 C18 2.33 18 2.66 18 3 C11.73 3 5.46 3 -1 3 C-0.67 2.01 -0.34 1.02 0 0 Z " fill="#494949" transform="translate(210,172)"/>
<path d="M0 0 C0.33 0.99 0.66 1.98 1 3 C0.67 3.66 0.34 4.32 0 5 C-0.66 5 -1.32 5 -2 5 C-2.33 5.66 -2.66 6.32 -3 7 C-4.32 6.34 -5.64 5.68 -7 5 C-4.69 3.35 -2.38 1.7 0 0 Z " fill="#101010" transform="translate(261,325)"/>
<path d="M0 0 C0.66 0.33 1.32 0.66 2 1 C0.5459375 2.0828125 0.5459375 2.0828125 -0.9375 3.1875 C-3.29913506 5.13237593 -3.93412331 5.7882535 -4.875 8.8125 C-4.91625 9.534375 -4.9575 10.25625 -5 11 C-5.33 11 -5.66 11 -6 11 C-6.375 8.3125 -6.375 8.3125 -6 5 C-4.176017 2.93601924 -2.27236161 1.60958947 0 0 Z " fill="#1E1E1E" transform="translate(215,275)"/>
<path d="M0 0 C2.25245881 2.68841859 3.88213958 4.64641875 5 8 C4.01 8 3.02 8 2 8 C1.67 7.01 1.34 6.02 1 5 C0.34 4.34 -0.32 3.68 -1 3 C-0.67 2.01 -0.34 1.02 0 0 Z " fill="#282828" transform="translate(370,222)"/>
<path d="M0 0 C2.12046792 3.53411321 2.53199289 6.94393835 3 11 C1 8 1 8 1 6 C0.01 5.67 -0.98 5.34 -2 5 C-1.34 3.35 -0.68 1.7 0 0 Z " fill="#434343" transform="translate(371,154)"/>
</svg>
